<mxfile host="65bd71144e">
    <diagram id="JVTkYfFtCK5pFcYbrqYt" name="페이지-1">
        <mxGraphModel dx="989" dy="557" grid="1" gridSize="10" guides="1" tooltips="1" connect="1" arrows="1" fold="1" page="1" pageScale="1" pageWidth="827" pageHeight="1169" math="0" shadow="0">
            <root>
                <mxCell id="0"/>
                <mxCell id="1" parent="0"/>
                <mxCell id="26" style="edgeStyle=orthogonalEdgeStyle;rounded=0;orthogonalLoop=1;jettySize=auto;html=1;exitX=0.5;exitY=1;exitDx=0;exitDy=0;" edge="1" parent="1" source="12" target="25">
                    <mxGeometry relative="1" as="geometry"/>
                </mxCell>
                <mxCell id="42" style="edgeStyle=orthogonalEdgeStyle;rounded=0;orthogonalLoop=1;jettySize=auto;html=1;exitX=0;exitY=0.5;exitDx=0;exitDy=0;entryX=0;entryY=0.5;entryDx=0;entryDy=0;" edge="1" parent="1" source="12" target="6">
                    <mxGeometry relative="1" as="geometry"/>
                </mxCell>
                <mxCell id="12" value="" style="rhombus;whiteSpace=wrap;html=1;" parent="1" vertex="1">
                    <mxGeometry x="225" y="170" width="160" height="120" as="geometry"/>
                </mxCell>
                <mxCell id="8" style="edgeStyle=orthogonalEdgeStyle;rounded=0;orthogonalLoop=1;jettySize=auto;html=1;exitX=0.5;exitY=1;exitDx=0;exitDy=0;entryX=0.5;entryY=0;entryDx=0;entryDy=0;" parent="1" source="6" target="12" edge="1">
                    <mxGeometry relative="1" as="geometry">
                        <mxPoint x="305" y="210" as="targetPoint"/>
                    </mxGeometry>
                </mxCell>
                <mxCell id="6" value="" style="rounded=1;whiteSpace=wrap;html=1;" parent="1" vertex="1">
                    <mxGeometry x="245" y="60" width="120" height="60" as="geometry"/>
                </mxCell>
                <mxCell id="9" value="센서값읽기" style="text;html=1;strokeColor=none;fillColor=none;align=center;verticalAlign=middle;whiteSpace=wrap;rounded=0;" parent="1" vertex="1">
                    <mxGeometry x="255" y="140" width="40" height="20" as="geometry"/>
                </mxCell>
                <mxCell id="10" value="아두이노 나노" style="text;html=1;strokeColor=none;fillColor=none;align=center;verticalAlign=middle;whiteSpace=wrap;rounded=0;" parent="1" vertex="1">
                    <mxGeometry x="265" y="220" width="80" height="20" as="geometry"/>
                </mxCell>
                <mxCell id="14" value="DHT22 센서" style="text;html=1;strokeColor=none;fillColor=none;align=center;verticalAlign=middle;whiteSpace=wrap;rounded=0;" parent="1" vertex="1">
                    <mxGeometry x="265" y="80" width="80" height="20" as="geometry"/>
                </mxCell>
                <mxCell id="38" style="edgeStyle=orthogonalEdgeStyle;rounded=0;orthogonalLoop=1;jettySize=auto;html=1;exitX=0.5;exitY=0;exitDx=0;exitDy=0;entryX=1;entryY=0.5;entryDx=0;entryDy=0;" edge="1" parent="1" source="19" target="12">
                    <mxGeometry relative="1" as="geometry"/>
                </mxCell>
                <mxCell id="19" value="지정된 시간만큼&lt;br&gt;팬 가동&lt;br&gt;" style="rounded=1;whiteSpace=wrap;html=1;" parent="1" vertex="1">
                    <mxGeometry x="435" y="460" width="120" height="60" as="geometry"/>
                </mxCell>
                <mxCell id="28" style="edgeStyle=orthogonalEdgeStyle;rounded=0;orthogonalLoop=1;jettySize=auto;html=1;exitX=0.5;exitY=1;exitDx=0;exitDy=0;entryX=0.5;entryY=0;entryDx=0;entryDy=0;" edge="1" parent="1" source="25" target="27">
                    <mxGeometry relative="1" as="geometry"/>
                </mxCell>
                <mxCell id="25" value="센서값 5회 측정&lt;br&gt;및 평균값 계산" style="rounded=1;whiteSpace=wrap;html=1;" vertex="1" parent="1">
                    <mxGeometry x="245" y="340" width="120" height="60" as="geometry"/>
                </mxCell>
                <mxCell id="29" style="edgeStyle=orthogonalEdgeStyle;rounded=0;orthogonalLoop=1;jettySize=auto;html=1;exitX=1;exitY=0.5;exitDx=0;exitDy=0;entryX=0;entryY=0.5;entryDx=0;entryDy=0;" edge="1" parent="1" source="27" target="19">
                    <mxGeometry relative="1" as="geometry"/>
                </mxCell>
                <mxCell id="30" style="edgeStyle=orthogonalEdgeStyle;rounded=0;orthogonalLoop=1;jettySize=auto;html=1;entryX=0;entryY=0.5;entryDx=0;entryDy=0;exitX=0;exitY=0.5;exitDx=0;exitDy=0;" edge="1" parent="1" source="27" target="25">
                    <mxGeometry relative="1" as="geometry">
                        <mxPoint x="210" y="460" as="sourcePoint"/>
                        <Array as="points">
                            <mxPoint x="210" y="490"/>
                            <mxPoint x="210" y="370"/>
                        </Array>
                    </mxGeometry>
                </mxCell>
                <mxCell id="27" value="평균값이&lt;br&gt;목표치를 넘었는가" style="rhombus;whiteSpace=wrap;html=1;" vertex="1" parent="1">
                    <mxGeometry x="230" y="430" width="150" height="120" as="geometry"/>
                </mxCell>
                <mxCell id="31" value="아니요" style="text;html=1;strokeColor=none;fillColor=none;align=center;verticalAlign=middle;whiteSpace=wrap;rounded=0;" vertex="1" parent="1">
                    <mxGeometry x="190" y="530" width="40" height="20" as="geometry"/>
                </mxCell>
                <mxCell id="33" value="예" style="text;html=1;strokeColor=none;fillColor=none;align=center;verticalAlign=middle;whiteSpace=wrap;rounded=0;" vertex="1" parent="1">
                    <mxGeometry x="385" y="500" width="40" height="20" as="geometry"/>
                </mxCell>
                <mxCell id="39" value="팬 가동이 멈추면" style="text;html=1;strokeColor=none;fillColor=none;align=center;verticalAlign=middle;whiteSpace=wrap;rounded=0;" vertex="1" parent="1">
                    <mxGeometry x="495" y="320" width="120" height="20" as="geometry"/>
                </mxCell>
                <mxCell id="43" value="&lt;h1&gt;아두이노 프로젝트&lt;/h1&gt;&lt;div&gt;센서값 읽어 목표치도달하면 팬 가동하기&lt;/div&gt;&lt;div&gt;&lt;br&gt;&lt;/div&gt;&lt;div style=&quot;text-align: right&quot;&gt;By Hsm&lt;/div&gt;" style="text;html=1;strokeColor=none;fillColor=none;spacing=5;spacingTop=-20;whiteSpace=wrap;overflow=hidden;rounded=0;" vertex="1" parent="1">
                    <mxGeometry x="500" y="10" width="230" height="120" as="geometry"/>
                </mxCell>
            </root>
        </mxGraphModel>
    </diagram>
</mxfile>